<svg width="29" height="27" viewBox="0 0 29 27" fill="none" xmlns="http://www.w3.org/2000/svg">
    <path d="M5.41719 4.83014H27.4726L24.7157 16.7768H8.17412M24.7157 20.4527H9.0931L4.49822 1.15424H1.74129"
        stroke="currentColor" stroke-width="1.83795" stroke-linecap="round" stroke-linejoin="round" />
    <path
        d="M22.8777 25.9666C23.8928 25.9666 24.7157 25.1437 24.7157 24.1287C24.7157 23.1136 23.8928 22.2907 22.8777 22.2907C21.8627 22.2907 21.0398 23.1136 21.0398 24.1287C21.0398 25.1437 21.8627 25.9666 22.8777 25.9666Z"
        stroke="currentColor" stroke-width="1.83795" stroke-linecap="round" stroke-linejoin="round" />
    <path
        d="M10.931 25.9666C11.9461 25.9666 12.769 25.1437 12.769 24.1287C12.769 23.1136 11.9461 22.2907 10.931 22.2907C9.91597 22.2907 9.09309 23.1136 9.09309 24.1287C9.09309 25.1437 9.91597 25.9666 10.931 25.9666Z"
        stroke="currentColor" stroke-width="1.83795" stroke-linecap="round" stroke-linejoin="round" />
</svg>